<?xml version="1.0" encoding="utf-8"?>
<!-- Generator: Adobe Illustrator 25.0.0, SVG Export Plug-In . SVG Version: 6.00 Build 0)  -->
<svg version="1.1" id="Layer_1" xmlns="http://www.w3.org/2000/svg" xmlns:xlink="http://www.w3.org/1999/xlink" x="0px" y="0px"
	 viewBox="0 0 210 56" style="enable-background:new 0 0 210 56;" xml:space="preserve">
<style type="text/css">
	.st0{fill:#283A5E;}
	.st1{fill:#FF4800;}
	.st2{fill:#FFFFFF;}
</style>
<g>
	<path class="st0" d="M52.3,31.2V7.4h9.2c4.4,0,7.2,2.6,7.2,6.4c0,2.3-1.2,4.1-2.9,4.8c2.4,0.6,4.1,2.7,4.1,5.6c0,4-3,7-7.3,7H52.3z
		 M61.1,11.9h-3.3v4.9h3.3c1.4,0,2.4-0.9,2.4-2.5S62.4,11.9,61.1,11.9 M61.8,21.2h-4v5.5h4c1.5,0,2.5-1.1,2.5-2.7
		C64.3,22.3,63.2,21.2,61.8,21.2"/>
	<path class="st0" d="M82,13.2c5.6,0,9.9,4,9.9,9.2c0,5.2-4.2,9.2-9.9,9.2c-5.6,0-9.9-4-9.9-9.2C72.2,17.2,76.4,13.2,82,13.2
		 M82,26.8c2.5,0,4.4-1.9,4.4-4.4c0-2.5-1.9-4.4-4.4-4.4c-2.5,0-4.4,1.9-4.4,4.4C77.6,24.9,79.5,26.8,82,26.8"/>
	<rect x="95.1" y="7.4" class="st0" width="5.5" height="23.8"/>
	<path class="st0" d="M112,13.2c2.3,0,4.2,0.9,5.6,2.3V7.4h5.4v23.8h-5.4v-1.9c-1.4,1.5-3.3,2.3-5.6,2.3c-4.8,0-8.3-4-8.3-9.2
		C103.7,17.2,107.2,13.2,112,13.2 M113.4,26.8c2.4,0,4.2-1.9,4.2-4.4c0-2.5-1.9-4.4-4.2-4.4c-2.4,0-4.2,1.9-4.2,4.4
		C109.2,24.9,111,26.8,113.4,26.8"/>
	<path class="st0" d="M139.2,7.4c7.2,0,11.9,4.7,11.9,11.9c0,7.2-4.8,11.9-11.9,11.9h-8.9V7.4H139.2z M136,12.3v14h1.7
		c0.6,0,1.2,0,1.7-0.1c3.7-0.2,6.1-2.5,6.1-7c0-4.6-2.7-7-6.6-7H136z"/>
	<path class="st0" d="M163.7,27.5c2.3,0,4.1-0.7,5.7-2.1l2.3,2.6c-1.9,2.1-4.5,3.7-8.1,3.7c-6.1,0-10.1-4-10.1-9.2
		c0-5.2,4.2-9.2,9.7-9.2c5.4,0,9.3,4,9.3,8.9c0,0.6-0.1,1.3-0.3,1.8h-13.2C159.3,26.1,161.1,27.5,163.7,27.5 M159,20.4h7.9
		c-0.4-1.9-1.8-3.2-3.8-3.2C161.1,17.3,159.5,18.5,159,20.4"/>
	<path class="st0" d="M176.7,25.5c1.4,1.3,2.9,2,4.6,2c1.4,0,2.1-0.5,2.1-1.4c0-0.9-0.7-1.4-2.7-1.8c-3.7-0.8-5.7-2.8-5.7-5.7
		c0-3.1,2.7-5.3,6.5-5.3c4.2,0,6.5,2.4,7,5.7h-4.7c-0.2-1-0.9-1.6-2-1.6c-1,0-1.7,0.5-1.7,1.2c0,0.8,0.7,1.4,2.6,1.8
		c4,0.8,5.9,2.8,5.9,5.7c0,3.2-2.8,5.5-7.1,5.5c-2.6,0-5-1.3-6.9-3.7L176.7,25.5z"/>
	<path class="st0" d="M207.2,13.6c0,4.5-1.2,7.5-3.3,9l4.5,8.6h-5.9l-3.6-7.3h-1.5v7.3h-5.5V7.4h5.5v11.9h1.1c1.8,0,3.4-1.1,3.4-5.7
		H207.2z"/>
	<g>
		<path class="st0" d="M57,52c-1.2,0-2.2-0.5-2.9-1.3v1.1h-1.8V40h1.8v4.6c0.7-0.8,1.7-1.3,2.9-1.3c2.4,0,4.1,1.9,4.1,4.4
			C61.1,50,59.4,52,57,52z M56.7,44.9c-1.5,0-2.6,1.2-2.6,2.7c0,1.5,1.1,2.7,2.6,2.7c1.5,0,2.6-1.2,2.6-2.7
			C59.2,46.1,58.2,44.9,56.7,44.9z"/>
		<path class="st0" d="M63.4,55.5l1.5-3.8l-3.2-8.3h1.9l2.2,6l2.2-6h1.9l-4.6,12.1H63.4z"/>
		<path class="st0" d="M76.8,48.9c0.8,0.9,1.8,1.5,2.9,1.5c1.3,0,2.2-0.6,2.2-1.6c0-0.9-0.6-1.6-2.5-2c-2.3-0.5-3.5-1.6-3.5-3.3
			c0-1.9,1.5-3.2,3.7-3.2c2,0,3.8,1.1,4,3.3h-1.9c-0.1-1.1-0.9-1.7-2-1.7c-1.1,0-1.8,0.6-1.8,1.4c0,0.9,0.7,1.5,2.4,1.9
			c2.5,0.6,3.6,1.7,3.6,3.5c0,1.9-1.5,3.3-4.1,3.3c-1.5,0-2.9-0.8-3.9-2.1L76.8,48.9z"/>
		<path class="st0" d="M86.2,55.5l1.5-3.8l-3.2-8.3h1.9l2.2,6l2.2-6h1.9l-4.6,12.1H86.2z"/>
		<path class="st0" d="M101.7,46.6v5.1h-1.8v-5c0-1.1-0.8-1.9-1.9-1.9c-1.1,0-2.2,1-2.2,2.3v4.6H94v-8.3h1.8v1.1
			c0.6-0.8,1.5-1.3,2.5-1.3C100.4,43.2,101.7,44.6,101.7,46.6z"/>
		<path class="st0" d="M111.5,49.7c-0.8,1.5-2.1,2.3-3.7,2.3c-2.5,0-4.5-1.9-4.5-4.4c0-2.5,1.9-4.4,4.3-4.4c2.1,0,3.6,1.1,4.1,3h-2
			c-0.3-0.8-1-1.4-2-1.4c-1.3,0-2.5,1.1-2.5,2.7c0,1.7,1.3,2.7,2.7,2.7c1,0,1.9-0.5,2.6-1.4L111.5,49.7z"/>
		<path class="st0" d="M117.9,41.6c-0.2,0-0.5,0-0.7,0c-1.1,0-1.5,0.5-1.5,1.4v0.5h2.2V45h-2.2v6.7h-1.8V45h-1.5v-1.6h1.5v-0.5
			c0-2,1-2.9,3.1-2.9c0.3,0,0.7,0,0.9,0.1V41.6z"/>
		<path class="st0" d="M119.2,48.6v-5.1h1.8v5c0,1.1,0.8,1.9,1.9,1.9c1.2,0,2.2-1,2.2-2.4v-4.5h1.8v8.3h-1.8v-1.1
			c-0.6,0.8-1.5,1.3-2.5,1.3C120.5,51.9,119.2,50.6,119.2,48.6z"/>
		<path class="st0" d="M129.5,49.4c0.6,0.6,1.3,1.1,2.2,1.1c0.9,0,1.5-0.4,1.5-1c0-0.6-0.5-1-1.6-1.2c-1.8-0.4-2.7-1.3-2.7-2.6
			c0-1.4,1.1-2.4,2.9-2.4c1.7,0,2.9,0.9,3.1,2.5h-1.8c-0.1-0.6-0.5-1-1.2-1c-0.7,0-1.2,0.4-1.2,0.9c0,0.5,0.5,1,1.5,1.2
			c1.9,0.4,2.8,1.2,2.8,2.6c0,1.4-1.2,2.5-3.2,2.5c-1.3,0-2.3-0.6-3.1-1.6L129.5,49.4z"/>
		<path class="st0" d="M137.7,40c0.6,0,1.1,0.5,1.1,1.1c0,0.6-0.5,1.1-1.1,1.1c-0.6,0-1.1-0.5-1.1-1.1C136.6,40.5,137.1,40,137.7,40
			z M136.8,43.4h1.8v8.3h-1.8V43.4z"/>
		<path class="st0" d="M145,43.2c2.6,0,4.6,1.9,4.6,4.4S147.7,52,145,52c-2.6,0-4.6-1.9-4.6-4.4S142.4,43.2,145,43.2z M145,50.3
			c1.5,0,2.7-1.2,2.7-2.7c0-1.5-1.2-2.7-2.7-2.7c-1.5,0-2.7,1.2-2.7,2.7C142.3,49.1,143.5,50.3,145,50.3z"/>
		<path class="st0" d="M159,46.6v5.1h-1.8v-5c0-1.1-0.8-1.9-1.9-1.9c-1.1,0-2.2,1-2.2,2.3v4.6h-1.8v-8.3h1.8v1.1
			c0.6-0.8,1.5-1.3,2.5-1.3C157.7,43.2,159,44.6,159,46.6z"/>
	</g>
	<g>
		<path class="st1" d="M13.7,38.5h14.2c7,0,12.7-5.7,12.7-12.7V13.2c0-7-5.7-12.7-12.7-12.7H13.7C6.7,0.5,1,6.2,1,13.2v12.7
			C1,32.8,6.7,38.5,13.7,38.5z M8.1,1.8l7.1,6.6h13.5c2.6,0,4.7,2.1,4.7,4.7v13.5c0,2.6-2.1,4.7-4.7,4.7H12.9
			c-2.6,0-4.7-2.1-4.7-4.7V1.8z"/>
		<path class="st1" d="M26.3,26.6l-3.2-3.2H16c-0.4,0-0.8-0.4-0.8-0.8v-7.1c0-0.4,0.4-0.8,0.8-0.8h9.5c0.4,0,0.8,0.4,0.8,0.8V26.6z"
			/>
	</g>
</g>
</svg>
