<svg id="Layer_1" data-name="Layer 1" xmlns="http://www.w3.org/2000/svg" viewBox="0 0 1913.05 679.12"><defs><style>.cls-1{fill:#00b14f;}</style></defs><path class="cls-1" d="M122.13,420.72c0,137.85,104,243.57,238.5,243.57,129.39,0,194.51-83.73,194.51-175.91v-33H366.55v50.74h137c.85,49.9-44.82,108.25-142.92,108.25-108.26,0-183.53-80.34-183.53-193.67,0-109.1,81.19-191.14,192.83-191.14,72.73,0,130.24,17.77,183.52,55l3.39-2.54V234.66c-39.75-27.91-107.41-55-188.6-55C230.38,179.69,122.13,286.25,122.13,420.72Zm-78.65,0c0,182.68,135.31,318.84,317.15,318.84,165.76,0,267.25-104,267.25-272.32V381H366.55v49h214v45.67c0,131.94-82,214-219.89,214-151.39,0-263.87-115.86-263.87-268.94,0-148.85,118.4-266.41,271.48-266.41,72.73,0,138.7,17.77,188.6,52.44v-49.9c-48.21-34.67-111.64-52.43-188.6-52.43C184.71,104.42,43.48,244,43.48,420.72Zm691.81,43.13V725.18h49.89V464.7c0-58.36,38.06-99.8,94.73-99.8,16.91,0,32.13,4.23,48.2,11,6.77-16.07,13.53-29.6,22-42.29-17.76-11.84-44-19.45-69.35-19.45C795.33,314.16,735.29,375.9,735.29,463.85ZM661.71,725.18h49.9V463.85c0-103.18,69.35-173.37,170-173.37,33.83,0,68.5,11,83.72,20.3,9.31-11,19.46-22.84,33-33.83-31.29-22-73.58-34.68-119.25-34.68-132.78,0-217.35,89.65-217.35,222.43ZM1444,432.56v73.58c29.6-39.75,55-74.43,78.65-103.18,60-73.58,112.49-114.17,193.68-114.17,109.94,0,190.29,82.88,190.29,199.59,0,114.17-78.66,201.28-186.91,201.28-88,0-164.07-60-181.83-142.08l-35.52,48.21c27.9,80.34,109.94,143.77,216.5,143.77,137,0,237.65-109.94,237.65-251.18C1956.52,345.45,1855,238,1716.34,238,1572.56,238,1506.59,345.45,1444,432.56Zm154.77,37.21h-1.69l-38.91,53.28c6.77,60.9,68.51,142.09,161.54,142.09,94.72,0,163.22-77,163.22-177.61s-70.19-175.06-166.6-175.06c-93.88,0-148,68.5-186.07,119.24-18.6,24.53-50.74,64.28-86.26,114.18v81.19c33-49.05,77.81-106.56,110.79-146.31,55.82-66.82,89.65-117.56,160.69-117.56,69.35,0,116.71,53.28,116.71,124.32,0,73.58-44.82,127.71-112.48,127.71-71,0-120.94-65.12-120.94-137.86Zm-49.9-409.33V271c15.22-11.84,32.14-26.22,49.9-33V60.44ZM1474.46,348c15.22-19.45,32.13-40.6,49.89-58.36V60.44h-49.89Zm-203,241-.85-.84c-21.14,16.91-55.81,27.06-88.8,27.06-67.66,0-118.4-50.75-118.4-126,0-71.88,49.9-126.86,116.71-126.86C1252,362.36,1296,414.8,1296,485V725.18h49.89V482.46c0-98.11-68.5-170-164.91-170-95.57,0-169.15,71.88-169.15,176.75,0,104,72.73,178.45,169.15,175.92,36.36-.85,73.58-14.38,90.49-26.22ZM936.57,488.38c0,147.16,104,251.18,244.42,251.18,31.29,0,67.66-9.3,90.49-27.06V662.6c-15.22,12.69-52.44,27.06-90.49,27.06-115,0-192.83-81.19-192.83-201.28,0-114.17,82.88-199.59,192.83-199.59,109.1,0,188.6,80.34,188.6,192.82V725.18h50.74V480.77c0-140.39-98.95-243.57-239.34-243.57C1043.13,237.2,936.57,346.3,936.57,488.38Z" transform="translate(-43.48 -60.44)"/></svg>