<?xml version="1.0" encoding="UTF-8"?><svg id="Ebene_1" xmlns="http://www.w3.org/2000/svg" width="163.6mm" height="91.2mm" viewBox="0 0 463.8 258.6"><defs><style>.cls-1{fill:#fff;}</style></defs><rect x="0" width="463.8" height="258.6"/><polygon class="cls-1" points="121.5 90.8 106.3 90.8 106.3 81.8 117.3 81.8 117.3 72.8 106.3 72.8 106.3 65.3 119.8 65.3 119.8 55.9 94.9 55.9 94.9 100.3 121.5 100.3 121.5 90.8"/><polygon class="cls-1" points="209 90.8 193.7 90.8 193.7 81.8 204.8 81.8 204.8 72.8 193.7 72.8 193.7 65.3 207.3 65.3 207.3 55.9 182.3 55.9 182.3 100.3 209 100.3 209 90.8"/><path class="cls-1" d="m146.4,100.4l2.3-12.9c1.1-5.8,2-11.8,2.1-14h0c.2,2.8,1.2,8.6,2.2,14l2.3,12.9h12.2l11.6-44.6h-12.2l-2.3,11.1c-.8,4.3-2.2,13-2.4,17h0c-.3-5.5-1.1-9.8-1.8-13.1l-2.9-14.9h-12.7l-2.3,12.4c-1.2,6.6-2,12.1-2.3,15.7,0-1.7-.5-6-2.6-16l-2.5-12.1h-12.1l10.8,44.6h12.5Z"/><path class="cls-1" d="m67.2,82.6c2.5,0,3.5.6,5.2,5.2l4.7,12.4h13.2c-1.4-3.3-5.2-11.6-6.6-14.5-1.1-2.3-3-4.4-4.5-4.8,5.2-.8,9.2-4.8,9.2-12.4s-4.2-12.7-17.3-12.7h-15.3v44.4h11.4v-17.6Zm0-17.5h3.2c3.6,0,5.3,1.1,5.3,4.2s-1.4,4.8-5.2,4.8h-3.3v-9.1Z"/><path class="cls-1" d="m222.2,90.8v18.4H55.7v93.6h352.3v-112h-185.9Zm135.3,37.1h7.8v41.1h-7.8v-41.1Zm-193.5,19.5c0-6.4,1.7-11.5,5.1-15,3.4-3.5,8.3-5.3,14.5-5.3s10.1,1.5,13.1,4.3c3,2.9,4.7,7.3,5,13.2v.4s-7.7.8-7.7.8v-.5c-.4-4.1-1.4-7-3-8.7-1.6-1.7-4.1-2.5-7.5-2.5s-7.3,1-9.1,3c-1.8,2-2.7,5.5-2.7,10.2v7.6h-7.7v-7.6Zm-53,16.3c0,6.1-1.9,11-5.7,14.8-3.8,3.6-9.1,5.5-15.5,5.5h-15.7v-41.1h7.9v33.9h7.8c4.5,0,7.9-1.2,10.1-3.6,2.2-2.5,3.3-5.7,3.3-9.5v-15.3c0-3.9-1.1-7.2-3.3-9.7-2.3-2.6-5.6-3.9-10.1-3.9h-15.7v-7.1h15.8c6.5,0,11.7,1.9,15.5,5.6h0c3.7,3.9,5.6,8.8,5.6,15v15.3Zm43.3,20.3h-33.3v-7.2h12.7v-41.9h-12.7v-7.1h20.6c0,.1,0,49,0,49h12.7v7.2Zm48.7-20.8c0,6.6-1.6,11.7-4.9,15.3-3.3,3.6-7.9,5.4-14,5.4s-11.5-1.8-15-5.2c-3.5-3.5-5.2-8.4-5.2-14.8v-.9h7.7v.9c0,4.7,1,8.1,2.9,10,1.9,1.9,5.1,2.9,9.6,2.9s6.9-1.1,8.6-3.3c1.7-2.2,2.5-5.9,2.6-11.1h-12.9v-7h20.7v7.8Zm45.7-28.2h-12.7v33.7h0v8.1h12.7v7.2h-33.3v-7.2h12.7v-33.7h0v-8.1h-12.7v-7.2h33.3v7.2Zm53.6-.1h-17.3v49.1h-7.9v-49.1h-17.3v-7.1h42.4v7.1Zm36.1,49.4l-4.8-15.9h-18.3l-4.8,15.9h-8l7.4-23h7.5s14.1,0,14.1,0l-7-23.3-4.6,15.3h-7.3l8.1-25.2h7.9l18.1,56.2h-8.3Zm51.1-.3h-32v-7.2h32v7.2Z"/></svg>