<svg width="100" height="63" viewBox="0 0 100 63" version="1.1" xmlns="http://www.w3.org/2000/svg" xmlns:xlink="http://www.w3.org/1999/xlink">
    <g id="Final" stroke="none" stroke-width="1" fill="none" fill-rule="evenodd">
        <g id="Homepage" transform="translate(-100.000000, -66.000000)" fill="#BA2025" fill-rule="nonzero">
            <g transform="translate(100.021692, 25.000000)" fill="#BA2025">
                <g id="logo-copy" transform="translate(0.000000, 41.151844)" fill="#BA2025">
                    <g id="Group" transform="translate(38.872017, 0.000000)" fill="#BA2025">
                        <circle id="Oval" cx="3.79609544" cy="39.0021692" r="3.79609544" fill="#BA2025"></circle>
                        <circle id="Oval" cx="17.1800434" cy="34.2299349" r="1.54013015" fill="#BA2025"></circle>
                        <circle id="Oval" cx="35.4229935" cy="27.5488069" r="1.54013015" fill="#BA2025"></circle>
                        <circle id="Oval" cx="35.1409978" cy="34.8806941" r="1.54013015" fill="#BA2025"></circle>
                        <circle id="Oval" cx="29.7180043" cy="39.978308" r="1.54013015" fill="#BA2025"></circle>
                        <circle id="Oval" cx="22.2559653" cy="39.5444685" r="1.54013015" fill="#BA2025"></circle>
                        <circle id="Oval" cx="17.4403471" cy="26.8546638" r="1.54013015" fill="#BA2025"></circle>
                        <circle id="Oval" cx="22.9934924" cy="21.8004338" r="1.54013015" fill="#BA2025"></circle>
                        <circle id="Oval" cx="30.3253796" cy="22.0390456" r="1.54013015" fill="#BA2025"></circle>
                        <circle id="Oval" cx="20.5639913" cy="32.9718004" r="1" fill="#BA2025"></circle>
                        <circle id="Oval" cx="32.2993492" cy="28.6550976" r="1" fill="#BA2025"></circle>
                        <circle id="Oval" cx="32.1041215" cy="33.3839479" r="1" fill="#BA2025"></circle>
                        <circle id="Oval" cx="28.6117137" cy="36.659436" r="1" fill="#BA2025"></circle>
                        <circle id="Oval" cx="23.8177874" cy="36.3774403" r="1" fill="#BA2025"></circle>
                        <circle id="Oval" cx="20.7158351" cy="28.2212581" r="1" fill="#BA2025"></circle>
                        <circle id="Oval" cx="24.2950108" cy="24.967462" r="1" fill="#BA2025"></circle>
                        <circle id="Oval" cx="29.0021692" cy="25.1193059" r="1" fill="#BA2025"></circle>
                        <circle id="Oval" cx="11.9522777" cy="36.0737527" r="2.42950108" fill="#BA2025"></circle>
                        <circle id="Oval" transform="translate(40.784855, 25.520508) rotate(-67.499572) translate(-40.784855, -25.520508) " cx="40.7848547" cy="25.5205076" r="2.42956243" fill="#BA2025"></circle>
                        <circle id="Oval" cx="40.3253796" cy="37.1149675" r="2.42950108" fill="#BA2025"></circle>
                        <circle id="Oval" cx="19.9566161" cy="44.4468547" r="2.42950108" fill="#BA2025"></circle>
                        <circle id="Oval" transform="translate(12.344308, 24.403605) rotate(-80.781636) translate(-12.344308, -24.403605) " cx="12.344308" cy="24.4036052" r="2.42953807" fill="#BA2025"></circle>
                        <circle id="Oval" transform="translate(21.129091, 16.420124) rotate(-45.000000) translate(-21.129091, -16.420124) " cx="21.1290911" cy="16.4201236" r="2.42947779" fill="#BA2025"></circle>
                        <circle id="Oval" cx="4.55531453" cy="20.6073753" r="3.79609544" fill="#BA2025"></circle>
                        <circle id="Oval" cx="18.1778742" cy="8.11279826" r="3.79609544" fill="#BA2025"></circle>
                        <circle id="Oval" cx="16.1605206" cy="52.5596529" r="3.79609544" fill="#BA2025"></circle>
                        <circle id="Oval" cx="34.5553145" cy="53.2537961" r="3.79609544" fill="#BA2025"></circle>
                        <circle id="Oval" cx="48.0911063" cy="40.9110629" r="3.79609544" fill="#BA2025"></circle>
                        <circle id="Oval" cx="48.8069414" cy="22.6681128" r="3.79609544" fill="#BA2025"></circle>
                        <path d="M34.5553145,44.0347072 C34.3383948,44.0347072 34.143167,44.0347072 33.9479393,44.0563991 C33.5574837,43.2537961 32.7331887,42.7114967 31.7787419,42.7114967 C30.4338395,42.7114967 29.3492408,43.7960954 29.3492408,45.1409978 C29.3492408,45.3145336 29.3709328,45.4663774 29.3926247,45.6399132 C26.9631236,47.2885033 25.3796095,50.0867679 25.3796095,53.2321041 C25.3796095,58.308026 29.5010846,62.4295011 34.5770065,62.4295011 C39.6529284,62.4295011 43.7744035,58.308026 43.7744035,53.2321041 C43.7527115,48.1561822 39.6312364,44.0347072 34.5553145,44.0347072 Z M34.5553145,58.9587852 C31.4099783,58.9587852 28.8503254,56.3991323 28.8503254,53.2537961 C28.8503254,50.1084599 31.4099783,47.5488069 34.5553145,47.5488069 C37.7006508,47.5488069 40.2603037,50.1084599 40.2603037,53.2537961 C40.2603037,56.3991323 37.7006508,58.9587852 34.5553145,58.9587852 Z" id="Shape" fill="#BA2025"></path>
                        <circle id="Oval" cx="36.5075922" cy="9.21908894" r="3.79609544" fill="#BA2025"></circle>
                        <path d="M30.3904555,16.0737527 C30.3253796,16.3123644 30.2819957,16.5509761 30.2819957,16.8112798 C30.2819957,18.1561822 31.3665944,19.2407809 32.7114967,19.2407809 C33.5140998,19.2407809 34.2516269,18.8503254 34.6854664,18.2212581 C35.2711497,18.329718 35.8785249,18.3947939 36.5075922,18.3947939 C41.5835141,18.3947939 45.7049892,14.2733189 45.7049892,9.19739696 C45.7049892,4.12147505 41.5835141,0 36.5075922,0 C31.4316703,0 27.3101952,4.12147505 27.3101952,9.19739696 C27.3101952,11.9522777 28.5032538,14.3817787 30.3904555,16.0737527 Z M36.5075922,3.49240781 C39.6529284,3.49240781 42.2125813,6.05206074 42.2125813,9.19739696 C42.2125813,12.3427332 39.6529284,14.9023861 36.5075922,14.9023861 C33.362256,14.9023861 30.802603,12.3427332 30.802603,9.19739696 C30.802603,6.07375271 33.362256,3.49240781 36.5075922,3.49240781 Z" id="Shape" fill="#BA2025"></path>
                    </g>
                    <path d="M95.4446855,18.0694143 C95.5748373,17.7874187 95.7266811,17.5488069 95.9436009,17.3535792 C96.1605206,17.1583514 96.3991323,16.9848156 96.681128,16.8763557 C96.9631236,16.7678959 97.2668113,16.70282 97.5704989,16.70282 C97.8958785,16.70282 98.1778742,16.7678959 98.4598698,16.8763557 C98.7418655,16.9848156 98.9804772,17.1583514 99.197397,17.3535792 C99.4143167,17.5488069 99.5661605,17.8091106 99.6963124,18.0694143 C99.8264642,18.35141 99.8698482,18.6550976 99.8698482,18.9804772 C99.8698482,19.3058568 99.8047722,19.6095445 99.6963124,19.8915401 C99.5661605,20.1735358 99.4143167,20.4121475 99.197397,20.6290672 C98.9804772,20.845987 98.7418655,20.9978308 98.4598698,21.1062907 C98.1778742,21.2147505 97.8958785,21.2798265 97.5704989,21.2798265 C97.2451193,21.2798265 96.9631236,21.2147505 96.681128,21.1062907 C96.3991323,20.9978308 96.1605206,20.824295 95.9436009,20.6290672 C95.7266811,20.4121475 95.5748373,20.1735358 95.4446855,19.8915401 C95.3145336,19.6095445 95.2711497,19.3058568 95.2711497,18.9804772 C95.2494577,18.6550976 95.3145336,18.35141 95.4446855,18.0694143 Z M95.813449,19.7613883 C95.9002169,20 96.0520607,20.2169197 96.2039046,20.3904555 C96.3774403,20.5639913 96.5726681,20.6941432 96.8112798,20.802603 C97.0498915,20.9110629 97.2885033,20.9544469 97.5704989,20.9544469 C97.8308026,20.9544469 98.0911063,20.9110629 98.308026,20.802603 C98.5466377,20.6941432 98.7418655,20.5639913 98.9154013,20.3904555 C99.0889371,20.2169197 99.2190889,20 99.3058568,19.7613883 C99.3926247,19.5227766 99.4577007,19.2624729 99.4577007,18.9804772 C99.4577007,18.6984816 99.4143167,18.4598698 99.3058568,18.2212581 C99.2190889,17.9826464 99.0672451,17.7874187 98.9154013,17.6138829 C98.7418655,17.4403471 98.5466377,17.3101952 98.308026,17.2017354 C98.0694143,17.0932755 97.8308026,17.0498915 97.5704989,17.0498915 C97.3101952,17.0498915 97.0498915,17.0932755 96.8112798,17.2017354 C96.5726681,17.3101952 96.3774403,17.4403471 96.2039046,17.6138829 C96.0303688,17.7874187 95.9002169,17.9826464 95.813449,18.2212581 C95.7266811,18.4598698 95.6616052,18.7201735 95.6616052,18.9804772 C95.6616052,19.2624729 95.7049892,19.5227766 95.813449,19.7613883 Z M97.7006508,17.6572668 C98.0260304,17.6572668 98.2646421,17.7223427 98.4164859,17.8524946 C98.5683297,17.9826464 98.6550976,18.1778742 98.6550976,18.4381779 C98.6550976,18.6767896 98.5900217,18.8503254 98.4598698,18.9587852 C98.329718,19.0672451 98.1561822,19.132321 97.9609544,19.154013 L98.7201735,20.3470716 L98.2646421,20.3470716 L97.527115,19.197397 L97.0932755,19.197397 L97.0932755,20.3470716 L96.681128,20.3470716 L96.681128,17.6789588 L97.7006508,17.6572668 L97.7006508,17.6572668 Z M97.527115,18.8503254 C97.6138829,18.8503254 97.7006508,18.8503254 97.7874187,18.8503254 C97.8741866,18.8503254 97.9392625,18.8286334 98.0043384,18.8069414 C98.0694143,18.7852495 98.1127983,18.7418655 98.1561822,18.6767896 C98.1995662,18.6117137 98.2212581,18.5249458 98.2212581,18.4381779 C98.2212581,18.35141 98.1995662,18.2863341 98.1778742,18.2212581 C98.1344902,18.1778742 98.0911063,18.1344902 98.0477223,18.0911063 C97.9826464,18.0694143 97.9392625,18.0477223 97.8524946,18.0260304 C97.7874187,18.0260304 97.7006508,18.0043384 97.6355748,18.0043384 L97.0932755,18.0043384 L97.0932755,18.8503254 L97.527115,18.8503254 L97.527115,18.8503254 Z" id="Shape" fill="#BA2025"></path>
                    <path d="M30.4555315,36.4859002 C30.3687636,34.4251627 29.197397,26.6160521 15.9002169,31.2147505 L17.0932755,34.7071584 C17.0932755,34.7071584 26.2255965,30.6073753 26.3991323,37.4186551 C26.3991323,37.4186551 15.3579176,34.4468547 14.4251627,41.8655098 C14.4251627,41.8655098 13.5791757,48.6117137 21.4750542,48.1561822 C21.4750542,48.1561822 24.3167028,48.0477223 26.3991323,45.6832972 L26.4208243,45.6616052 L26.4208243,47.8741866 L30.4772234,47.8741866 L30.4555315,36.4859002 L30.4555315,36.4859002 Z M21.626898,45.1626898 C21.626898,45.1626898 18.2212581,45.2928416 18.0694143,42.472885 C18.0694143,42.472885 17.9826464,39.3926247 22.1258134,39.7613883 C22.1258134,39.7613883 24.5986985,39.9349241 26.1822126,40.5639913 C26.2039046,40.5639913 26.9631236,44.6203905 21.626898,45.1626898 Z" id="Shape" fill="#BA2025"></path>
                    <path d="M10.9761388,33.6225597 L10.9761388,30.1735358 L6.31236443,30.1735358 L6.31236443,25.2277657 L2.10412148,25.2277657 L2.10412148,30.1735358 L0,30.1735358 L0,33.6225597 L2.10412148,33.6225597 L2.10412148,43.8394794 C2.10412148,46.1605206 3.99132321,48.0477223 6.31236443,48.0477223 L6.31236443,48.0477223 C8.93709328,48.2646421 10.845987,47.1583514 10.845987,47.1583514 L10.845987,43.8611714 C9.32754881,44.5119306 8.28633406,44.4685466 8.28633406,44.4685466 C6.52928416,44.4685466 6.31236443,42.9934924 6.31236443,42.9934924 L6.31236443,33.6008677 L10.9761388,33.6008677 L10.9761388,33.6225597 L10.9761388,33.6225597 Z" id="Path" fill="#BA2025"></path>
                    <path d="M42.6681128,33.29718 C45.813449,33.29718 48.373102,35.856833 48.373102,39.0021692 C48.373102,42.1475054 45.813449,44.7071584 42.6681128,44.7071584 C39.5227766,44.7071584 36.9631236,42.1475054 36.9631236,39.0021692 C36.9414317,35.856833 39.5227766,33.29718 42.6681128,33.29718 M42.6681128,29.8047722 C37.5921909,29.8047722 33.4707158,33.9262473 33.4707158,39.0021692 C33.4707158,44.0780911 37.5921909,48.1995662 42.6681128,48.1995662 C47.7440347,48.1995662 51.8655098,44.0780911 51.8655098,39.0021692 C51.8655098,33.9262473 47.7440347,29.8047722 42.6681128,29.8047722 L42.6681128,29.8047722 Z" id="Shape" fill="#BA2025"></path>
                </g>
            </g>
        </g>
    </g>
</svg>