<?xml version="1.0" encoding="utf-8"?>
<!-- Generator: Adobe Illustrator 27.7.0, SVG Export Plug-In . SVG Version: 6.00 Build 0)  -->
<svg version="1.1" id="Capa_1" xmlns="http://www.w3.org/2000/svg" xmlns:xlink="http://www.w3.org/1999/xlink" x="0px" y="0px"
	 viewBox="0 0 257.7 162.3" style="enable-background:new 0 0 257.7 162.3;" xml:space="preserve">
<style type="text/css">
	.st0{fill:#BA2025;}
</style>
<g id="Final_00000075148130923106533030000000495019496520549809_">
	<g id="Homepage_00000049198588499898148170000000198383535841805730_" transform="translate(-100.000000, -66.000000)">
		<g transform="translate(100.021692, 25.000000)">
			<g id="logo-copy_00000011022784910720240930000012752299732799445663_" transform="translate(0.000000, 41.151844)">
				<g id="Group_00000183968974101190281220000009207107326999364781_" transform="translate(38.872017, 0.000000)">
					<circle id="Oval_00000138551526939261670660000010280310104751066005_" class="st0" cx="75.2" cy="96.9" r="7.7"/>
					<circle id="Oval_00000165237034260339013340000002560073545125851571_" class="st0" cx="102.4" cy="87.1" r="3.1"/>
					<circle id="Oval_00000019637536400139620240000008152867313479831209_" class="st0" cx="139.5" cy="73.6" r="3.1"/>
					<circle id="Oval_00000167396837764078572100000015824981217025545914_" class="st0" cx="138.9" cy="88.5" r="3.1"/>
					<circle id="Oval_00000110473275282182856280000002364031978394619301_" class="st0" cx="127.9" cy="98.8" r="3.1"/>
					<circle id="Oval_00000149369997816408227820000008417069094700125843_" class="st0" cx="112.7" cy="98" r="3.1"/>
					<circle id="Oval_00000026134698071001406810000011352828002709122495_" class="st0" cx="102.9" cy="72.1" r="3.1"/>
					<circle id="Oval_00000124135108381527763650000002643561014780371588_" class="st0" cx="114.2" cy="61.9" r="3.1"/>
					<circle id="Oval_00000135660992323229029080000005534015316783578040_" class="st0" cx="129.1" cy="62.3" r="3.1"/>
					<circle id="Oval_00000178179065762421691440000010622245701557480627_" class="st0" cx="109.3" cy="84.6" r="2"/>
					<circle id="Oval_00000033346916863107654280000006795504634724838033_" class="st0" cx="133.1" cy="75.8" r="2"/>
					<circle id="Oval_00000055674375631119697110000000194279221805742003_" class="st0" cx="132.7" cy="85.4" r="2"/>
					<circle id="Oval_00000092425312240550004980000000137441548295402426_" class="st0" cx="125.6" cy="92.1" r="2"/>
					<circle id="Oval_00000106855999862866630670000008390112680667128759_" class="st0" cx="115.9" cy="91.5" r="2"/>
					<circle id="Oval_00000038372917091536001080000015401920220848701327_" class="st0" cx="109.6" cy="74.9" r="2"/>
					<circle id="Oval_00000132788903876963007130000011472007316007790984_" class="st0" cx="116.8" cy="68.3" r="2"/>
					<circle id="Oval_00000138531335842549271290000007407559874877579909_" class="st0" cx="126.4" cy="68.6" r="2"/>
					<circle id="Oval_00000034074033652726092460000003129097410997989514_" class="st0" cx="91.7" cy="90.9" r="4.9"/>
					<circle id="Oval_00000049204967918287859330000009368766487991848096_" class="st0" cx="150.4" cy="69.4" r="4.9"/>
					<circle id="Oval_00000031194732083968550560000010442660505756560817_" class="st0" cx="149.5" cy="93" r="4.9"/>
					<circle id="Oval_00000056422175535574849400000007874758546673783707_" class="st0" cx="108" cy="107.9" r="4.9"/>
					<circle id="Oval_00000029013358563185657680000008289279734981461951_" class="st0" cx="92.5" cy="67.2" r="4.9"/>
					<circle id="Oval_00000004530248547895390740000014042905047158456251_" class="st0" cx="110.4" cy="50.9" r="4.9"/>
					<circle id="Oval_00000080206123623451752280000005739006153790011292_" class="st0" cx="76.7" cy="59.4" r="7.7"/>
					<circle id="Oval_00000016760556355395287720000002128471053399012274_" class="st0" cx="104.4" cy="34" r="7.7"/>
					<circle id="Oval_00000098918365649493618340000010234565896991492240_" class="st0" cx="100.3" cy="124.4" r="7.7"/>
					<circle id="Oval_00000098212764738570622670000000461074058111399868_" class="st0" cx="137.7" cy="125.8" r="7.7"/>
					<circle id="Oval_00000171691362901734386440000010100626563212262787_" class="st0" cx="165.3" cy="100.7" r="7.7"/>
					<circle id="Oval_00000047771775169180314320000009895230099031704756_" class="st0" cx="166.7" cy="63.6" r="7.7"/>
					<path id="Shape_00000163777462191135273630000016096080303630297262_" class="st0" d="M137.7,107.1c-0.4,0-0.8,0-1.2,0
						c-0.8-1.6-2.5-2.7-4.4-2.7c-2.7,0-4.9,2.2-4.9,4.9c0,0.4,0,0.7,0.1,1c-4.9,3.4-8.2,9-8.2,15.4c0,10.3,8.4,18.7,18.7,18.7
						s18.7-8.4,18.7-18.7C156.4,115.5,148,107.1,137.7,107.1z M137.7,137.4c-6.4,0-11.6-5.2-11.6-11.6c0-6.4,5.2-11.6,11.6-11.6
						c6.4,0,11.6,5.2,11.6,11.6C149.3,132.2,144.1,137.4,137.7,137.4z"/>
					<circle id="Oval_00000150094756217437765260000014670685872582220215_" class="st0" cx="141.7" cy="36.3" r="7.7"/>
					<path id="Shape_00000083090760620438514450000009057005524883306369_" class="st0" d="M129.2,50.2c-0.1,0.5-0.2,1-0.2,1.5
						c0,2.7,2.2,4.9,4.9,4.9c1.6,0,3.1-0.8,4-2.1c1.2,0.2,2.4,0.4,3.7,0.4c10.3,0,18.7-8.4,18.7-18.7s-8.4-18.7-18.7-18.7
						S123,25.9,123,36.2C123,41.8,125.4,46.8,129.2,50.2z M141.7,24.6c6.4,0,11.6,5.2,11.6,11.6s-5.2,11.6-11.6,11.6
						s-11.6-5.2-11.6-11.6C130.1,29.9,135.3,24.6,141.7,24.6z"/>
				</g>
				<path id="Shape_00000152248435418551626730000017123007903536589700_" class="st0" d="M221.4,54.3c0.3-0.6,0.6-1.1,1-1.5
					c0.4-0.4,0.9-0.8,1.5-1c0.6-0.2,1.2-0.4,1.8-0.4c0.7,0,1.2,0.1,1.8,0.4c0.6,0.2,1.1,0.6,1.5,1c0.4,0.4,0.8,0.9,1,1.5
					c0.3,0.6,0.4,1.2,0.4,1.9c0,0.7-0.1,1.3-0.4,1.9c-0.3,0.6-0.6,1.1-1,1.5c-0.4,0.4-0.9,0.8-1.5,1s-1.1,0.4-1.8,0.4
					c-0.7,0-1.2-0.1-1.8-0.4c-0.6-0.2-1.1-0.6-1.5-1c-0.4-0.4-0.8-0.9-1-1.5c-0.3-0.6-0.4-1.2-0.4-1.9
					C221,55.5,221.1,54.8,221.4,54.3z M222.1,57.7c0.2,0.5,0.5,0.9,0.8,1.3c0.4,0.4,0.8,0.6,1.2,0.8c0.5,0.2,1,0.3,1.5,0.3
					c0.5,0,1.1-0.1,1.5-0.3c0.5-0.2,0.9-0.5,1.2-0.8s0.6-0.8,0.8-1.3c0.2-0.5,0.3-1,0.3-1.6c0-0.6-0.1-1.1-0.3-1.5
					c-0.2-0.5-0.5-0.9-0.8-1.2c-0.4-0.4-0.8-0.6-1.2-0.8s-1-0.3-1.5-0.3c-0.5,0-1.1,0.1-1.5,0.3c-0.5,0.2-0.9,0.5-1.2,0.8
					c-0.4,0.4-0.6,0.8-0.8,1.2c-0.2,0.5-0.3,1-0.3,1.5C221.8,56.7,221.9,57.2,222.1,57.7z M226,53.4c0.7,0,1.1,0.1,1.5,0.4
					c0.3,0.3,0.5,0.7,0.5,1.2c0,0.5-0.1,0.8-0.4,1.1c-0.3,0.2-0.6,0.4-1,0.4l1.5,2.4h-0.9l-1.5-2.3h-0.9v2.3h-0.8v-5.4L226,53.4
					L226,53.4z M225.6,55.9c0.2,0,0.4,0,0.5,0c0.2,0,0.3,0,0.4-0.1c0.1,0,0.2-0.1,0.3-0.3c0.1-0.1,0.1-0.3,0.1-0.5
					c0-0.2,0-0.3-0.1-0.4c-0.1-0.1-0.2-0.2-0.3-0.3c-0.1,0-0.2-0.1-0.4-0.1c-0.1,0-0.3,0-0.4,0h-1.1v1.7H225.6L225.6,55.9z"/>
				<path id="Shape_00000028321235651844545480000007381224435582406024_" class="st0" d="M89.2,91.7C89,87.5,86.6,71.7,59.6,81
					l2.4,7.1c0,0,18.6-8.3,18.9,5.5c0,0-22.5-6-24.4,9c0,0-1.7,13.7,14.3,12.8c0,0,5.8-0.2,10-5l0,0v4.5h8.3L89.2,91.7L89.2,91.7z
					 M71.2,109.4c0,0-6.9,0.3-7.2-5.5c0,0-0.2-6.3,8.3-5.5c0,0,5,0.4,8.3,1.6C80.5,100,82.1,108.3,71.2,109.4z"/>
				<path id="Path_00000140692680383590130500000014711704401758634371_" class="st0" d="M49.6,85.9v-7h-9.5V68.8h-8.6v10.1h-4.3v7
					h4.3v20.8c0,4.7,3.8,8.6,8.6,8.6l0,0c5.3,0.4,9.2-1.8,9.2-1.8v-6.7c-3.1,1.3-5.2,1.2-5.2,1.2c-3.6,0-4-3-4-3V85.9L49.6,85.9
					L49.6,85.9L49.6,85.9z"/>
				<path id="Shape_00000060751020784111886690000016416846296264456325_" class="st0" d="M114,85.2c6.4,0,11.6,5.2,11.6,11.6
					c0,6.4-5.2,11.6-11.6,11.6c-6.4,0-11.6-5.2-11.6-11.6C102.4,90.5,107.6,85.2,114,85.2 M114,78.1c-10.3,0-18.7,8.4-18.7,18.7
					s8.4,18.7,18.7,18.7s18.7-8.4,18.7-18.7S124.4,78.1,114,78.1L114,78.1z"/>
			</g>
		</g>
	</g>
</g>
</svg>
